<?xml version="1.0" encoding="iso-8859-1"?>
<!-- Generator: Adobe Illustrator 19.0.0, SVG Export Plug-In . SVG Version: 6.00 Build 0)  -->
<svg version="1.1" id="Layer_1" xmlns="http://www.w3.org/2000/svg" xmlns:xlink="http://www.w3.org/1999/xlink" x="0px" y="0px"
	 viewBox="0 0 433 433" style="enable-background:new 0 0 433 433;" xml:space="preserve">
<g>
	<g>
		<g>
			<circle style="fill:#FFD3AE;" cx="135.927" cy="160" r="27.89"/>
			<circle style="fill:#FFD3AE;" cx="297.062" cy="160" r="27.89"/>
		</g>
		<g>
			<path style="fill:#333333;" d="M135.927,193.89c-18.687,0-33.89-15.203-33.89-33.89s15.203-33.89,33.89-33.89
				c18.688,0,33.891,15.203,33.891,33.89S154.614,193.89,135.927,193.89z M135.927,138.11c-12.07,0-21.89,9.82-21.89,21.89
				s9.819,21.89,21.89,21.89s21.891-9.82,21.891-21.89S147.997,138.11,135.927,138.11z"/>
			<path style="fill:#333333;" d="M297.063,193.89c-18.688,0-33.891-15.203-33.891-33.89s15.203-33.89,33.891-33.89
				c18.687,0,33.89,15.203,33.89,33.89S315.749,193.89,297.063,193.89z M297.063,138.11c-12.07,0-21.891,9.82-21.891,21.89
				s9.82,21.89,21.891,21.89s21.89-9.82,21.89-21.89S309.133,138.11,297.063,138.11z"/>
		</g>
	</g>
	<path style="fill:#A5CDEF;" d="M265.855,255.97c0.19,0.05,0.39,0.09,0.58,0.14c10.46,2.53,20.19,6.93,28.83,12.81
		c23.39,15.92,38.75,42.77,38.75,73.19V427h-47.04h-140.96h-47.03v-84.89c0-30.42,15.35-57.27,38.74-73.19
		c8.64-5.88,18.37-10.28,28.83-12.81c0.19-0.05,0.39-0.09,0.58-0.14"/>
	<path style="fill:#FFD3AE;" d="M146.015,303v124h-47.03v-84.89c0-30.42,15.35-57.27,38.74-73.19
		C143.025,279.12,146.015,290.71,146.015,303z"/>
	<path style="fill:#FFD3AE;" d="M334.015,342.11V427h-47.04V303c0-12.29,2.99-23.88,8.29-34.08
		C318.655,284.84,334.015,311.69,334.015,342.11z"/>
	<path style="fill:#FFD3AE;" d="M266.435,256.11v13.808c0,27.58-22.36,49.94-49.94,49.94s-49.94-22.36-49.94-49.94V256.11
		c0.19-0.05,0.39-0.09,0.58-0.14c14.1,9.49,31.08,15.03,49.36,15.03s35.26-5.54,49.36-15.03
		C266.045,256.02,266.245,256.06,266.435,256.11z"/>
	<path style="opacity:0.44;fill:#333333;enable-background:new    ;" d="M264.875,256.62c-6.74,12.83-16.55,23.81-28.44,31.95
		c-0.19,0.14-0.39,0.27-0.58,0.4c-14.1,9.49-31.08,15.03-49.36,15.03c-6.5,0-6.267-7.273-12.367-8.613
		c-0.66-3.23-7.573-7.467-7.573-10.887v-28.39c0.19-0.05,0.39-0.09,0.58-0.14c14.1,9.49,31.08,15.03,49.36,15.03
		C234.355,271,250.975,265.71,264.875,256.62z"/>
	<path style="fill:#FFD3AE;" d="M265.855,255.97c-14.1,9.49-31.08,15.03-49.36,15.03s-35.26-5.54-49.36-15.03
		c-0.19-0.13-0.39-0.26-0.58-0.4c-23.28-15.94-38.56-42.72-38.56-73.07V160v-51.5c0-48.877,39.623-88.5,88.5-88.5l0,0
		c48.877,0,88.5,39.623,88.5,88.5V160v22.5c0,30.35-15.28,57.13-38.56,73.07C266.245,255.71,266.045,255.84,265.855,255.97z"/>
	<g>
		<path style="fill:#333333;" d="M216.495,40c4.631,0,9.156,0.462,13.531,1.342"/>
		<path style="fill:#FFFFFF;" d="M230.033,47.343c-0.393,0-0.791-0.039-1.19-0.119C224.805,46.412,220.649,46,216.494,46
			c-3.313,0-6-2.687-6-6s2.687-6,6-6c4.948,0,9.899,0.491,14.716,1.46c3.248,0.654,5.353,3.817,4.698,7.066
			C235.335,45.375,232.831,47.343,230.033,47.343z"/>
	</g>
	<path style="fill:#333333;" d="M216.495,325.858c-30.846,0-55.94-25.095-55.94-55.94V255.57h12v14.348
		c0,24.229,19.712,43.94,43.94,43.94s43.939-19.711,43.939-43.94V255.57h12v14.348C272.435,300.764,247.34,325.858,216.495,325.858z
		"/>
	<g>
		<path style="fill:#333333;" d="M184.885,180.437c-1.58,0-3.13-0.64-4.24-1.75c-1.12-1.12-1.76-2.67-1.76-4.25s0.64-3.12,1.76-4.24
			c1.39-1.39,3.46-2.03,5.41-1.64c0.39,0.08,0.76,0.19,1.13,0.34c0.36,0.15,0.71,0.34,1.03,0.55c0.33,0.22,0.64,0.47,0.91,0.75
			c0.28,0.28,0.53,0.58,0.75,0.91s0.4,0.68,0.55,1.04c0.15,0.36,0.27,0.74,0.34,1.12c0.08,0.39,0.12,0.78,0.12,1.17
			s-0.04,0.79-0.12,1.18c-0.07,0.38-0.19,0.76-0.34,1.12s-0.33,0.71-0.55,1.03c-0.22,0.33-0.47,0.64-0.75,0.92
			C188.015,179.797,186.465,180.437,184.885,180.437z"/>
		<path style="fill:#333333;" d="M252.885,180.437c-0.39,0-0.79-0.04-1.17-0.11c-0.38-0.08-0.76-0.2-1.12-0.35
			c-0.37-0.15-0.71-0.33-1.04-0.55c-0.33-0.22-0.64-0.47-0.91-0.74c-0.28-0.28-0.53-0.59-0.75-0.92c-0.22-0.32-0.4-0.67-0.55-1.03
			c-0.15-0.36-0.27-0.74-0.34-1.12c-0.08-0.39-0.12-0.79-0.12-1.18s0.04-0.78,0.12-1.17c0.07-0.38,0.19-0.76,0.34-1.12
			s0.33-0.71,0.55-1.04c0.22-0.33,0.47-0.63,0.75-0.91c0.27-0.28,0.58-0.53,0.91-0.75c0.33-0.21,0.67-0.4,1.04-0.55
			c0.36-0.15,0.74-0.26,1.12-0.34c1.95-0.39,4.02,0.25,5.41,1.64c0.28,0.28,0.53,0.58,0.75,0.91s0.4,0.68,0.55,1.04
			s0.27,0.74,0.34,1.12c0.08,0.39,0.12,0.78,0.12,1.17s-0.04,0.79-0.12,1.18c-0.07,0.38-0.19,0.76-0.34,1.12s-0.33,0.71-0.55,1.03
			c-0.22,0.33-0.47,0.64-0.75,0.92C256.015,179.797,254.465,180.437,252.885,180.437z"/>
	</g>
	<g>
		<path style="fill:#333333;" d="M209.552,194c-3.313,0-6-2.687-6-6v-16.856c0-3.204-2.606-5.81-5.811-5.81h-28.58
			c-3.313,0-6-2.687-6-6s2.687-6,6-6h28.58c9.82,0,17.811,7.99,17.811,17.81V188C215.552,191.313,212.865,194,209.552,194z"/>
		<path style="fill:#333333;" d="M263.828,165.333h-24c-3.313,0-6-2.687-6-6s2.687-6,6-6h24c3.313,0,6,2.687,6,6
			S267.142,165.333,263.828,165.333z"/>
	</g>
	<g>
		<path style="fill:#333333;" d="M228.495,229.333h-24c-3.313,0-6-2.687-6-6s2.687-6,6-6h24c3.313,0,6,2.687,6,6
			S231.809,229.333,228.495,229.333z"/>
	</g>
	<path style="fill:#333333;" d="M292.975,427h-12V303c0-12.816,3.101-25.558,8.966-36.846l10.648,5.533
		c-5.053,9.724-7.614,20.259-7.614,31.313V427z"/>
	<path style="fill:#FFFFFF;" d="M314.015,413c-3.313,0-6-2.687-6-6v-59c0-3.313,2.687-6,6-6s6,2.687,6,6v59
		C320.015,410.313,317.328,413,314.015,413z M314.024,336c-3.313,0-6.005-2.687-6.005-6s2.682-6,5.995-6h0.01c3.313,0,6,2.687,6,6
		S317.338,336,314.024,336z"/>
	<g>
		<path style="opacity:0.44;fill:#333333;enable-background:new    ;" d="M142.665,280.92c-15.21,15.89-24.56,37.45-24.56,61.19V425
			h-19.12v-82.89c0-30.42,15.35-57.27,38.74-73.19C139.705,272.74,141.365,276.75,142.665,280.92z"/>
	</g>
	<path style="fill:#333333;" d="M334.015,433H98.984c-3.313,0-6-2.686-6-6v-84.89c0-31.306,15.463-60.521,41.364-78.15
		c9.417-6.408,19.764-11.008,30.753-13.672c0.13-0.033,0.263-0.064,0.396-0.095l0.124-0.029l3.032,11.611
		c-0.151,0.04-0.306,0.076-0.461,0.112l-0.124,0.029c-0.02,0.004-0.084,0.021-0.103,0.026c-9.597,2.321-18.636,6.338-26.865,11.938
		c-22.615,15.392-36.116,40.898-36.116,68.229V421h223.03v-78.89c0-27.327-13.505-52.833-36.126-68.23
		c-8.229-5.6-17.267-9.617-26.865-11.938c-0.038-0.01-0.076-0.019-0.114-0.029l-0.113-0.026c-0.154-0.036-0.309-0.072-0.46-0.111
		l3.037-11.609l-1.519,5.805l1.513-5.806l0.121,0.028c0.135,0.031,0.269,0.063,0.4,0.096c10.991,2.664,21.337,7.264,30.752,13.671
		c25.907,17.634,41.374,46.849,41.374,78.15V427C340.015,430.314,337.328,433,334.015,433z"/>
	<path style="fill:#333333;" d="M152.015,427h-12V303c0-11.054-2.562-21.59-7.614-31.313l10.648-5.533
		c5.865,11.289,8.966,24.03,8.966,36.846V427z"/>
	<path style="opacity:0.44;fill:#333333;enable-background:new    ;" d="M198.135,255.97c10.02,6.74,21.5,11.49,33.86,13.68
		c-5.03,0.89-10.21,1.35-15.5,1.35c-18.28,0-35.26-5.54-49.36-15.03c-0.19-0.13-0.39-0.26-0.58-0.4
		c-23.28-15.94-38.56-42.72-38.56-73.07V160c0-139,54.89-137.301,54.89-134.411l-10.384,15.807
		c-15.364,23.387-15.305,53.174-0.958,76.231c2.423,3.895,10.151,17.294,10.019,20.366c-0.483,11.29-9.201,21.36-21.338,21.975
		c-0.407,0.021-0.817,0.031-1.229,0.031v22.5c0,30.35,15.28,57.13,38.56,73.07C197.745,255.71,197.945,255.84,198.135,255.97z"/>
	<path style="fill:#FFFFFF;" d="M283,211c-3.313,0-6-2.687-6-6v-25c0-3.313,2.687-6,6-6s6,2.687,6,6v25
		C289,208.313,286.313,211,283,211z"/>
	<path style="fill:#333333;" d="M216.495,277c-18.881,0-37.107-5.551-52.711-16.052l-0.173-0.118
		c-0.172-0.115-0.344-0.233-0.513-0.354c-25.739-17.656-41.104-46.799-41.104-77.976v-74c0-0.845,0.179-1.681,0.523-2.452
		C124.201,102.29,164.329,14,216.495,14c52.107,0,94.5,42.393,94.5,94.5v74c0,31.174-15.363,60.316-41.101,77.973
		c-0.171,0.123-0.345,0.242-0.518,0.358l-0.133,0.09c-0.014,0.009-0.026,0.018-0.039,0.027C253.602,271.449,235.375,277,216.495,277
		z M133.995,109.818V182.5c0,27.241,13.439,52.707,35.949,68.12c0.054,0.037,0.106,0.074,0.158,0.112
		c0.072,0.053,0.147,0.102,0.221,0.151l0.201,0.136c13.576,9.137,29.485,13.98,45.971,13.98c16.484,0,32.395-4.844,46.009-14.007
		l0.371-0.252c0.053-0.039,0.116-0.084,0.17-0.121c22.511-15.414,35.95-40.879,35.95-68.12v-74c0-45.491-37.01-82.5-82.5-82.5
		c-22.717,0-43.927,22.714-57.719,41.768C145.327,86.349,136.213,105.092,133.995,109.818z"/>
	<path style="fill:#665A52;" d="M257.21,108V83.49c0-8.97-7.27-16.23-16.23-16.23h-29.03c-8.97,0-16.23,7.26-16.23,16.23V108"/>
	<path style="fill:#333333;" d="M304.995,114h-237c-3.313,0-6-2.686-6-6s2.687-6,6-6h237c3.313,0,6,2.686,6,6
		S308.309,114,304.995,114z"/>
	<path style="fill:#3A88D6;" d="M129,59.54C129,29.97,152.97,6,182.54,6h68.92c29.57,0,53.53,23.97,53.53,53.54V108h-47.78V83.49
		c0-8.97-7.27-16.23-16.23-16.23h-29.03c-8.97,0-16.23,7.26-16.23,16.23V108H129V59.54z"/>
	<g style="opacity:0.44;">
		<path style="fill:#333333;" d="M227.55,6h-45.01C152.97,6,129,29.97,129,59.54V108h45.01V59.54C174.01,29.97,197.98,6,227.55,6z"
			/>
	</g>
	<path style="opacity:0.44;fill:#333333;enable-background:new    ;" d="M240.98,67.26h-23.21c8.96,0,16.23,7.26,16.23,16.23V108
		h23.21V83.49C257.21,74.52,249.94,67.26,240.98,67.26z"/>
	<path style="fill:#333333;" d="M304.99,114H128c-3.313,0-6-2.687-6-6V59.492C122,26.688,148.688,0,181.491,0h70.007
		c32.804,0,59.492,26.688,59.492,59.492V108C310.99,111.313,308.304,114,304.99,114z M134,102h164.99V59.492
		C298.99,33.305,277.686,12,251.498,12h-70.007C155.305,12,134,33.305,134,59.492V102z"/>
	<path style="fill:#FFFFFF;" d="M286.99,96c-3.313,0-6-2.687-6-6V59.54c0-6.812-2.385-13.464-6.716-18.731
		c-2.104-2.56-1.735-6.341,0.824-8.445c2.56-2.104,6.342-1.735,8.445,0.824c6.092,7.409,9.446,16.768,9.446,26.353V90
		C292.99,93.313,290.304,96,286.99,96z"/>
	<path style="fill:#FFFFFF;" d="M261.001,31.302c-0.534,0-1.076-0.072-1.616-0.223c-2.566-0.716-5.232-1.08-7.925-1.08
		c-3.313,0-6-2.687-6-6s2.687-6,6-6c3.783,0,7.535,0.512,11.151,1.522c3.191,0.891,5.057,4.201,4.166,7.392
		C266.037,29.566,263.626,31.302,261.001,31.302z"/>
	<g id="XMLID_19_">
		<g>
			<path style="fill:#665A52;" d="M304,108l0.99,70C291.46,162.53,284,142.67,284,122.11V108H304z"/>
			<path style="fill:#665A52;" d="M149,108v14.11c0,20.56-7.46,40.42-21,55.89l1-70H149z"/>
		</g>
		<g>
			<path style="fill:#333333;" d="M127.999,184c-0.722,0-1.449-0.13-2.149-0.399c-2.349-0.901-3.885-3.172-3.849-5.687l1-70
				c0.047-3.28,2.719-5.914,5.999-5.914h20c3.313,0,6,2.687,6,6v14.11c0,22.023-7.985,43.275-22.485,59.842
				C131.353,183.28,129.695,184,127.999,184z M134.915,114l-0.631,44.157c5.688-11.069,8.716-23.412,8.716-36.047V114H134.915z"/>
			<path style="fill:#333333;" d="M304.991,184c-1.697,0-3.354-0.721-4.518-2.05C285.981,165.38,278,144.128,278,122.11V108
				c0-3.313,2.687-6,6-6h20c3.28,0,5.953,2.635,5.999,5.915l0.99,70c0.036,2.515-1.501,4.786-3.85,5.687
				C306.439,183.87,305.712,184,304.991,184z M290,114v8.11c0,12.631,3.025,24.971,8.709,36.039L298.084,114H290z"/>
		</g>
	</g>
	<path style="fill:#333333;" d="M263.21,108h-12V81.903c0-4.766-3.877-8.643-8.643-8.643h-32.205c-4.766,0-8.643,3.877-8.643,8.643
		V108h-12V81.903c0-11.382,9.26-20.643,20.643-20.643h32.205c11.383,0,20.643,9.26,20.643,20.643V108z"/>
	<path style="fill:#FFFFFF;" d="M250.5,433c-3.313,0-6-2.687-6-6v-47c0-15.439-12.561-28-28-28s-28,12.561-28,28v47
		c0,3.313-2.687,6-6,6s-6-2.687-6-6v-47c0-22.056,17.944-40,40-40s40,17.944,40,40v47C256.5,430.313,253.813,433,250.5,433z"/>
	<g>
		<path style="fill:#333333;" d="M348,433H85.229c-3.313,0-6-2.687-6-6s2.687-6,6-6H348c3.313,0,6,2.687,6,6S351.313,433,348,433z"
			/>
		<path style="fill:#333333;" d="M380,433h-11c-3.313,0-6-2.687-6-6s2.687-6,6-6h11c3.313,0,6,2.687,6,6S383.313,433,380,433z"/>
		<path style="fill:#333333;" d="M64,433H53c-3.313,0-6-2.687-6-6s2.687-6,6-6h11c3.313,0,6,2.687,6,6S67.313,433,64,433z"/>
	</g>
</g>
<g>
</g>
<g>
</g>
<g>
</g>
<g>
</g>
<g>
</g>
<g>
</g>
<g>
</g>
<g>
</g>
<g>
</g>
<g>
</g>
<g>
</g>
<g>
</g>
<g>
</g>
<g>
</g>
<g>
</g>
</svg>
